<svg xmlns="http://www.w3.org/2000/svg" version="1.1" xmlns:xlink="http://www.w3.org/1999/xlink" xmlns:svgjs="http://svgjs.com/svgjs" width="512" height="512" x="0" y="0" viewBox="0 0 64 64" style="enable-background:new 0 0 512 512" xml:space="preserve"><g><path xmlns="http://www.w3.org/2000/svg" d="M50.30859,5.43311C44.27344,4.0752,36.26465,5.896,32,12.8418,27.73438,5.89648,19.72363,4.0752,13.69141,5.43311,5.98145,7.16748,1,13.56006,1,21.71973a25.22186,25.22186,0,0,0,1.07031,7.041C6.61816,44.31836,24.09082,58.65137,31.71,60.957A.996.996,0,0,0,32,61a1.0109,1.0109,0,0,0,.25586-.0332C42.50977,58.24951,63,39.37451,63,21.71973,63,13.56006,58.01855,7.16748,50.30859,5.43311ZM21.42426,52.28577c-6.21839-5.20966-12.80982-12.72766-16.163-20.58283l.00824.007a37.62841,37.62841,0,0,0,6.01074,4.20215l3.6709,2.06006a1.01344,1.01344,0,0,0,.65821.11377l6.98535-1.19434a.69633.69633,0,0,1,.61132.44776.84764.84764,0,0,1,.04395.26074.71322.71322,0,0,1-.55566.70312l-2.89063.64014a1.00008,1.00008,0,0,0-.41211,1.75488l6.74024,5.43994a1.00085,1.00085,0,0,0,.16308.10743.94222.94222,0,0,1,.42676.45361,1.00336,1.00336,0,0,1-.32538,1.10034L22.00977,44.4502,20.79688,46.04l4.08978,3.12274-.98163.88538-3.80151-3.22931-1.29493,1.52441,3.598,3.05646Zm15.00891,4.72387-.76868-.793,3.82184-2.62048-1.13086-1.64941-4.10309,2.81335-.66937-.69049,3.9873-2.96075-1.1914-1.60547-4.19953,3.11835-.00067-.00068a1.0056,1.0056,0,0,1-.33691-1.10351.98845.98845,0,0,1,.42773-.46729.97863.97863,0,0,0,.1543-.10547l6.21582-5.17627a.99988.99988,0,0,0-.43457-1.74755l-2.89356-.60547a.71511.71511,0,0,1,.084-1.4126l7.002,1.11523a.99217.99217,0,0,0,.65723-.12109l3.63769-2.09863a37.65325,37.65325,0,0,0,5.96973-4.273l6.47943-5.67059C54.94629,41.96423,44.4776,52.47888,36.43317,57.00964Zm23.84808-29.7091L51.3457,35.12061A35.67067,35.67067,0,0,1,45.69238,39.166L42.3623,41.0874l-6.74707-1.0747A.99334.99334,0,0,0,35.458,40a2.71563,2.71563,0,0,0-.55664,5.37354l.86914.18164L31.209,49.35352a2.90172,2.90172,0,0,0-.40722,4.71582l3.774,3.89788a17.98767,17.98767,0,0,1-2.55628.98981,33.37812,33.37812,0,0,1-9.02515-5.39361l4.73023-4.26654a2.98659,2.98659,0,0,0,.81836-3.4253,2.94758,2.94758,0,0,0-1.22363-1.34521l-5.05469-4.07959.8623-.19092A2.70019,2.70019,0,0,0,25.25,37.6001a2.8741,2.8741,0,0,0-.14355-.88477,2.70217,2.70217,0,0,0-2.5625-1.82519,1.44082,1.44082,0,0,0-.19336.01416l-6.7295,1.15039-3.36132-1.88623a35.67379,35.67379,0,0,1-5.69043-3.97852l-2.65015-2.2655A23.05685,23.05685,0,0,1,3,21.71973c0-8.72364,5.75-13.125,11.13086-14.33545a15.54921,15.54921,0,0,1,3.40137-.37012,14.65028,14.65028,0,0,1,13.56445,8.354.99944.99944,0,0,0,1.80664,0C36.375,8.041,44.13574,6.0918,49.86914,7.38428,55.25,8.59473,61,12.99609,61,21.71973A23.527,23.527,0,0,1,60.28125,27.30054Z" fill="#000000" data-original="#000000"></path><path xmlns="http://www.w3.org/2000/svg" d="M28.78906,25.44482,29,16.02246a1.00022,1.00022,0,0,0-1.55469-.85449L24.69727,17H18.30273l-2.748-1.832A.99992.99992,0,0,0,14,16v8.83789l-1.94824,5.8457A.99684.99684,0,0,0,12,31v2h2V31.16211l1.94824-5.8457A.99684.99684,0,0,0,16,25V17.86865l1.44531.96338A1.00094,1.00094,0,0,0,18,19h7a1.00094,1.00094,0,0,0,.55469-.168L26.957,17.897,26.794,25.17578l-1.68848,3.377a1.00109,1.00109,0,0,0,0,.89454L27,33.23584V38h2V33a1.00067,1.00067,0,0,0-.10547-.44727L27.11816,29l1.56543-3.13037A1.005,1.005,0,0,0,28.78906,25.44482Z" fill="#000000" data-original="#000000"></path><circle xmlns="http://www.w3.org/2000/svg" cx="19" cy="22" r="1" fill="#000000" data-original="#000000"></circle><circle xmlns="http://www.w3.org/2000/svg" cx="24" cy="22" r="1" fill="#000000" data-original="#000000"></circle><path xmlns="http://www.w3.org/2000/svg" d="M54.77441,15.37061l-3.958-1.31934A.99858.99858,0,0,0,50.5,14h-9a.99858.99858,0,0,0-.31641.05127l-3.957,1.31934a2.02682,2.02682,0,0,0-1.334,1.52832l-.87988,5.4414a.99932.99932,0,0,0,.49121,1.02783L38.5,25.08008v3.18408l-2.39453,4.78857A1.00067,1.00067,0,0,0,36,33.5V38h2V33.73584l2.39453-4.78857A1.00067,1.00067,0,0,0,40.5,28.5v-4a.99959.99959,0,0,0-.50391-.86816l-2.89843-1.65625.76074-4.70752L41.66211,16h8.68164l3.78906,1.21826.76953,4.75733-2.89843,1.65625A.99959.99959,0,0,0,51.5,24.5v4a1.00071,1.00071,0,0,0,.2002.6001l1.5,2,1.5996-1.2002L53.5,28.1665V25.08008l2.99609-1.71192a.99932.99932,0,0,0,.49121-1.02783l-.88964-5.49121A2.00808,2.00808,0,0,0,54.77441,15.37061Z" fill="#000000" data-original="#000000"></path><circle xmlns="http://www.w3.org/2000/svg" cx="43" cy="21" r="1" fill="#000000" data-original="#000000"></circle><circle xmlns="http://www.w3.org/2000/svg" cx="49" cy="21" r="1" fill="#000000" data-original="#000000"></circle><ellipse xmlns="http://www.w3.org/2000/svg" cx="46" cy="25" rx="1.25" ry="1" fill="#000000" data-original="#000000"></ellipse></g></svg>