<svg xmlns="http://www.w3.org/2000/svg" version="1.1" xmlns:xlink="http://www.w3.org/1999/xlink" xmlns:svgjs="http://svgjs.com/svgjs" width="512" height="512" x="0" y="0" viewBox="0 0 64 64" style="enable-background:new 0 0 512 512" xml:space="preserve" class=""><g><g xmlns="http://www.w3.org/2000/svg" id="outline"><rect x="55" y="4" width="2" height="2" fill="#ffffff" data-original="#000000" class=""></rect><rect x="55" y="8" width="2" height="2" fill="#ffffff" data-original="#000000" class=""></rect><rect x="53" y="6" width="2" height="2" fill="#ffffff" data-original="#000000" class=""></rect><rect x="57" y="6" width="2" height="2" fill="#ffffff" data-original="#000000" class=""></rect><rect x="6" y="15" width="2" height="2" fill="#ffffff" data-original="#000000" class=""></rect><rect x="6" y="19" width="2" height="2" fill="#ffffff" data-original="#000000" class=""></rect><rect x="4" y="17" width="2" height="2" fill="#ffffff" data-original="#000000" class=""></rect><rect x="8" y="17" width="2" height="2" fill="#ffffff" data-original="#000000" class=""></rect><rect x="15" y="34" width="2" height="2" fill="#ffffff" data-original="#000000" class=""></rect><rect x="15" y="38" width="2" height="2" fill="#ffffff" data-original="#000000" class=""></rect><rect x="13" y="36" width="2" height="2" fill="#ffffff" data-original="#000000" class=""></rect><rect x="17" y="36" width="2" height="2" fill="#ffffff" data-original="#000000" class=""></rect><rect x="41" y="44" width="2" height="2" fill="#ffffff" data-original="#000000" class=""></rect><rect x="41" y="48" width="2" height="2" fill="#ffffff" data-original="#000000" class=""></rect><rect x="39" y="46" width="2" height="2" fill="#ffffff" data-original="#000000" class=""></rect><rect x="43" y="46" width="2" height="2" fill="#ffffff" data-original="#000000" class=""></rect><path d="M48.949,18.684a1,1,0,0,0-.5-.579l-1.282-.641.8-3.221a1,1,0,0,0-.523-1.138l-1.762-.881L43.867,9.5,42.9,7.553a1,1,0,0,0-1.211-.5l-2.724.908L35.243,7.03a1,1,0,0,0-.95.263L32,9.586,31.414,9l.293-.293A1,1,0,0,0,32,8V6a1,1,0,0,0-.553-.895l-2-1A1,1,0,0,0,29,4H28V3a1,1,0,0,0-1-1H23a1,1,0,0,0-.832.445L20.465,5H18a1,1,0,0,0-.707.293l-1,1A1,1,0,0,0,16,7V8.764l-.745,1.491-1.7.85a1,1,0,0,0-.26,1.6l1,1,1,1a1.028,1.028,0,0,0,.26.188l1.855.927,1.77,1.77.7,1.408-.777,1.553a1,1,0,0,0,0,.894l.553,1.106-1.105.552a1,1,0,0,0-.448,1.342l1,2a1.008,1.008,0,0,0,.295.353L23,29.5V31a.925.925,0,0,0,.02.2l.947,4.74-.873,2.621-1.26,1.888-.666,1A1.008,1.008,0,0,0,21,42v2.838l-.949,2.846A1,1,0,0,0,20,48v2a1,1,0,0,0,.105.447l.5,1,.5,1A1,1,0,0,0,22,53h1.586l1.637,1.637,1.945,2.918A1,1,0,0,0,28,58h2.7l2.014,1.342L32.1,60.553A1,1,0,0,0,33,62h6a1,1,0,0,0,.9-.553l1-2A1,1,0,0,0,41,59V57a1,1,0,0,0-.553-.9L33,52.382V51a.978.978,0,0,0-.115-.443l.01,0-1-2a1,1,0,0,0-.448-.448l-1.7-.85-.85-1.7a1,1,0,0,0-.448-.448L27,44.382V43.236l.895-1.789-.011-.005a1.153,1.153,0,0,0,.065-.126l.977-2.932.969-1.937A1,1,0,0,0,30,36V33a1,1,0,0,0-.105-.447L29.618,32h1.146L32,32.618V35a1,1,0,0,0,1,1h2.838l2.846.949A1,1,0,0,0,39,37h1a1,1,0,0,0,1-1V34a1,1,0,0,0-.051-.316L40,30.838V28.721L42.162,28H49a1,1,0,0,0,1-1V22a1,1,0,0,0-.051-.316ZM16.447,11.9a1,1,0,0,0,.448-.448l1-2A1,1,0,0,0,18,9V7.414L18.414,7H21a1,1,0,0,0,.832-.445L23.535,4H26V5a1,1,0,0,0,1,1h1.764L30,6.618v.968l-.707.707a1,1,0,0,0,0,1.414l2,2a1,1,0,0,0,1.414,0l2.6-2.6,3.45.863a1,1,0,0,0,.559-.021l2.178-.726.611,1.224a1.168,1.168,0,0,0,.063.108L43.131,12H16.236Zm2.26,2.4a1.028,1.028,0,0,0-.26-.188L18.236,14H44.764l1.071.536-.8,3.221a1,1,0,0,0,.523,1.138l1.629.814L47.946,22H21.618l-.5-1,.777-1.553a1,1,0,0,0,0-.894l-1-2a1.028,1.028,0,0,0-.188-.26ZM39,57.618v1.146L38.382,60H34.618l.277-.553a1,1,0,0,0-.34-1.279l-3-2A1.006,1.006,0,0,0,31,56H28.535l-1.7-2.555a1.011,1.011,0,0,0-.125-.152L25.414,52H31v1a1,1,0,0,0,.553.9ZM27.255,46.745l.85,1.7a1,1,0,0,0,.448.448l1.7.85.127.255H22.118L22,49.764v-1.6l.949-2.846A1,1,0,0,0,23,45V42.3l.2-.3h2.18l-.277.553A1,1,0,0,0,25,43v2a1,1,0,0,0,.553.9ZM48,26H42a1,1,0,0,0-.316.051l-3,1A1,1,0,0,0,38,28v3a1,1,0,0,0,.051.316L39,34.162v.784l-2.684-.895A1,1,0,0,0,36,34H34V32a1,1,0,0,0-.553-.895l-2-1A1,1,0,0,0,31,30H28a1,1,0,0,0-.895,1.447L28,33.236v2.528l-.895,1.789a1,1,0,0,0-.054.131L26.279,40H24.535l.3-.445a1.06,1.06,0,0,0,.117-.239l1-3a.989.989,0,0,0,.031-.512L25,30.9V29a1,1,0,0,0-.4-.8l-3.811-2.858-.447-.895L21.236,24H48Z" fill="#ffffff" data-original="#000000" class=""></path><rect x="24" y="16" width="2" height="2" fill="#ffffff" data-original="#000000" class=""></rect><rect x="34" y="26" width="2" height="2" fill="#ffffff" data-original="#000000" class=""></rect></g></g></svg>